<?xml version="1.0" encoding="UTF-8"?>
<svg width="143px" height="43px" viewBox="0 0 143 43" version="1.1" xmlns="http://www.w3.org/2000/svg" xmlns:xlink="http://www.w3.org/1999/xlink">
    <!-- Generator: Sketch 44.1 (41455) - http://www.bohemiancoding.com/sketch -->
    <title>logo</title>
    <desc>Created with Sketch.</desc>
    <defs>
        <polygon id="path-1" points="0 42.3985866 142.840205 42.3985866 142.840205 4.84355445e-05 0 4.84355445e-05"></polygon>
    </defs>
    <g id="Symbols" stroke="none" stroke-width="1" fill="none" fill-rule="evenodd">
        <g id="HEADER" transform="translate(-373.000000, -58.000000)">
            <g id="logo">
                <g transform="translate(373.000000, 58.000000)">
                    <polygon id="Fill-11" fill="#35B297" points="6.38392857 25.8322904 14.7127831 42.7973242 30.0854716 42.8220263 33.8059438 37.4897572"></polygon>
                    <polygon id="Fill-12" fill="#139A7D" points="0 27.1239049 11.1985118 42.7792416 29.4831844 42.8087872 33.2036565 36.9519612"></polygon>
                    <polygon id="Fill-13" fill="#139A7D" points="14.0446429 7.70641802 19.4948041 12.0133066 24.4232526 2.38238298 22.748731 1.29161452"></polygon>
                    <polygon id="Fill-14" fill="#35B297" points="30.1021684 42.4899199 14.0446429 7.73354193 17.455036 5.16645807 36.1634515 32.9442428"></polygon>
                    <polygon id="Fill-15" fill="#35B297" points="20.4285714 2.36268586 30.8932614 10.9701665 23.5521891 0"></polygon>
                    <g id="logo_sylius">
                        <g id="Page-1">
                            <path d="M52.3002346,29.1000751 C52.3002346,29.1000751 54.7878587,32.0638461 58.415644,32.0638461 C60.6959661,32.0638461 62.5967144,30.6693867 62.5967144,28.4021189 C62.5967144,23.2403429 50.8136104,24.0429199 50.8136104,16.369761 C50.8136104,12.6726758 54.0277513,9.77768335 58.622946,9.77768335 C61.2151809,9.77768335 65.5685232,10.9643542 65.5685232,14.312219 L65.5685232,16.3348874 L62.3894124,16.3348874 L62.3894124,15.1845432 C62.3894124,13.8932516 60.5582446,12.9516646 58.622946,12.9516646 C55.9976003,12.9516646 54.3387044,14.4163554 54.3387044,16.2646558 C54.3387044,21.2520638 66.0867782,20.1365932 66.0867782,28.2277509 C66.0867782,31.9950676 63.18455,35.2378273 58.347503,35.2378273 C53.1635131,35.2378273 50.2617648,31.5756158 50.2617648,31.5756158 L52.3002346,29.1000751 L52.3002346,29.1000751 Z" id="Fill-1" fill="#FFFFFF"></path>
                            <path d="M71.6138721,39.2138527 C72.9608554,39.2138527 74.0319158,38.2373921 74.688852,36.6680805 L75.4839896,34.7495486 L69.5063017,20.7637851 C69.2644493,20.2058076 68.9530164,20.0667976 68.4002111,20.0667976 L67.9860869,20.0667976 L67.9860869,17.1718051 L69.9549762,17.1718051 C71.3710601,17.1718051 71.8902748,17.5549303 72.4426003,18.9503583 L76.4163688,28.8903008 C76.762352,29.7974985 77.0387547,31.0175899 77.0387547,31.0175899 L77.1068956,31.0175899 C77.1068956,31.0175899 77.3497077,29.7974985 77.6947312,28.8903008 L81.3229963,18.9503583 C81.8407715,17.5549303 82.4631574,17.1718051 83.8797211,17.1718051 L85.8841205,17.1718051 L85.8841205,20.0667976 L85.4344862,20.0667976 C84.8821607,20.0667976 84.5712077,20.2058076 84.3293554,20.7637851 L77.4183285,37.993277 C76.3467883,40.7134171 74.2392178,42.1437188 71.786144,42.1437188 C69.1948688,42.1437188 67.674654,40.3990705 67.674654,40.3990705 L69.0561876,37.9584034 C69.0561876,37.993277 70.127248,39.2138527 71.6138721,39.2138527" id="Fill-3" fill="#FFFFFF"></path>
                            <path d="M89.2339674,13.8590076 C89.2339674,13.3359038 88.9575648,13.0908199 88.4738601,13.0908199 L87.0568164,13.0908199 L87.0568164,10.1967961 L90.3736487,10.1967961 C91.9284138,10.1967961 92.58535,10.8593944 92.58535,12.428706 L92.58535,31.1577623 C92.58535,31.6808662 92.8622326,31.9249814 93.3454574,31.9249814 L94.7620211,31.9249814 L94.7620211,34.8194895 L91.4447091,34.8194895 C89.889944,34.8194895 89.2339674,34.1564069 89.2339674,32.5870952 L89.2339674,13.8590076 Z" id="Fill-5" fill="#FFFFFF"></path>
                            <mask id="mask-2" fill="white">
                                <use xlink:href="#path-1"></use>
                            </mask>
                            <g id="Clip-8"></g>
                            <path d="M99.7636141,13.718932 L102.769493,13.718932 L102.769493,10.1971836 L99.7636141,10.1971836 L99.7636141,13.718932 Z M99.6945134,20.8336292 C99.6945134,20.3105253 99.4181107,20.0668945 98.934406,20.0668945 L97.5173624,20.0668945 L97.5173624,17.171902 L100.800604,17.171902 C102.355369,17.171902 103.011346,17.8340159 103.011346,19.4033275 L103.011346,31.1576655 C103.011346,31.6807693 103.287748,31.9248845 103.771453,31.9248845 L105.188497,31.9248845 L105.188497,34.8193926 L101.905255,34.8193926 C100.35049,34.8193926 99.6945134,34.15631 99.6945134,32.5869984 L99.6945134,20.8336292 Z" id="Fill-7" fill="#FFFFFF" mask="url(#mask-2)"></path>
                            <path d="M109.433293,20.8338713 C109.433293,20.3107675 109.156891,20.0666523 108.673186,20.0666523 L107.256142,20.0666523 L107.256142,17.1716598 L110.539384,17.1716598 C112.128699,17.1716598 112.784676,17.8342581 112.784676,19.3343069 L112.784676,27.7049377 C112.784676,30.1465735 113.268381,32.0990103 116.033367,32.0990103 C119.626602,32.0990103 121.734652,28.925029 121.734652,25.4371855 L121.734652,17.1716598 L125.086035,17.1716598 L125.086035,31.1574233 C125.086035,31.6810115 125.362438,31.9246423 125.846142,31.9246423 L127.262226,31.9246423 L127.262226,34.8196348 L124.049525,34.8196348 C122.56386,34.8196348 121.837823,34.1216786 121.837823,32.8662293 L121.837823,32.2041154 C121.837823,31.6456536 121.872374,31.1927812 121.872374,31.1927812 L121.802793,31.1927812 C121.077716,32.9359765 118.831944,35.2376335 115.376431,35.2376335 C111.437213,35.2376335 109.433293,33.145218 109.433293,28.4721567 L109.433293,20.8338713 Z" id="Fill-9" fill="#FFFFFF" mask="url(#mask-2)"></path>
                            <path d="M131.16128,29.8672941 C131.16128,29.8672941 133.2343,32.4828135 136.448441,32.4828135 C138.071347,32.4828135 139.48839,31.7499837 139.48839,30.2155457 C139.48839,27.0415645 129.952018,27.3907847 129.952018,21.7059049 C129.952018,18.3231665 132.888796,16.7538548 136.448441,16.7538548 C138.556011,16.7538548 142.184276,17.4862003 142.184276,20.1714668 L142.184276,21.8453992 L139.177437,21.8453992 L139.177437,20.9730751 C139.177437,19.9268673 137.622672,19.4735106 136.551132,19.4735106 C134.582243,19.4735106 133.30388,20.1714668 133.30388,21.5659262 C133.30388,24.913791 142.840253,24.1819299 142.840253,30.0765357 C142.840253,33.2151589 140.076226,35.2378273 136.41341,35.2378273 C131.749115,35.2378273 129.433763,32.1340776 129.433763,32.1340776 L131.16128,29.8672941 Z" id="Fill-10" fill="#FFFFFF" mask="url(#mask-2)"></path>
                        </g>
                    </g>
                </g>
            </g>
        </g>
    </g>
</svg>